<?xml version="1.0" encoding="utf-8"?>
<!-- Generator: Adobe Illustrator 22.0.1, SVG Export Plug-In . SVG Version: 6.00 Build 0)  -->
<svg version="1.1" id="Layer_1" xmlns="http://www.w3.org/2000/svg" xmlns:xlink="http://www.w3.org/1999/xlink" x="0px" y="0px"
	 viewBox="0 0 900 300" style="enable-background:new 0 0 900 300;" xml:space="preserve">
<style type="text/css">
	.st0{opacity:0.3;}
	.st1{fill:#FFFFFF;}
</style>
<g>
	<g class="st0">
		<polygon class="st1" points="139.4,106.5 139.4,208.9 127.8,208.9 127.8,169.1 100.5,169.1 100.5,208.9 73.2,208.9 73.2,169.1 
			45.9,169.1 45.9,208.9 34.3,208.9 34.3,106.5 		"/>
	</g>
	<g>
		<path class="st1" d="M147.1,103.2v-27h-41.2V66H67.8v10.2H26.6v27H0v113.4h173.7V103.2H147.1z M26.6,208.9h-19v-98.1h19V208.9z
			 M65.5,208.9h-12v-32.2h12V208.9z M120.2,208.9h-12v-32.2h12V208.9z M139.4,208.9h-11.6v-39.8h-27.3v39.8H73.2v-39.8H45.9v39.8
			H34.3V106.5h105.1V208.9z M139.4,98.8H34.3V83.9h41.2V73.6h22.8v10.2h41.2V98.8z M166,208.9h-19v-98.1h19V208.9z"/>
	</g>
	<g>
		<rect x="83" y="182" class="st1" width="7.7" height="14.2"/>
	</g>
	<g>
		<g>
			<rect x="54.5" y="119" class="st1" width="7.7" height="10"/>
		</g>
		<g>
			<rect x="54.5" y="141" class="st1" width="7.7" height="14.3"/>
		</g>
		<g>
			<rect x="83.6" y="119" class="st1" width="7.7" height="10"/>
		</g>
		<g>
			<rect x="83.6" y="141" class="st1" width="7.7" height="14.3"/>
		</g>
		<g>
			<rect x="111.5" y="119" class="st1" width="7.7" height="10"/>
		</g>
		<g>
			<rect x="111.5" y="141" class="st1" width="7.7" height="14.3"/>
		</g>
	</g>
	<g>
		<g>
			<path class="st1" d="M246,102.8h10.5l17.6,45h6.1v18h-10.1v-8.2h-37.7v8.2h-10.1v-18h6.1L246,102.8z M251.4,117.3l-12,30.4h24
				L251.4,117.3z"/>
			<path class="st1" d="M312.8,101.4c7.7,0,14.4,2.8,20,8.4c5.6,5.6,8.4,12.4,8.4,20.5c0,8-2.8,14.8-8.3,20.3
				c-5.5,5.5-12.2,8.3-20,8.3c-8.2,0-15.1-2.8-20.5-8.5c-5.4-5.7-8.2-12.4-8.2-20.3c0-5.2,1.3-10,3.8-14.4c2.5-4.4,6-7.9,10.4-10.4
				C302.9,102.7,307.7,101.4,312.8,101.4z M312.7,111.6c-5.1,0-9.3,1.8-12.8,5.3c-3.5,3.5-5.2,8-5.2,13.4c0,6.1,2.2,10.8,6.5,14.4
				c3.4,2.8,7.3,4.1,11.6,4.1c4.9,0,9.2-1.8,12.6-5.4c3.5-3.6,5.2-8,5.2-13.2c0-5.2-1.8-9.6-5.3-13.2
				C322,113.5,317.7,111.6,312.7,111.6z"/>
			<path class="st1" d="M356.3,102.8h10.2l12.7,38.2l12.8-38.2h10.1l9.2,54.8h-10.1l-5.9-34.6l-11.6,34.6h-9.2L363,123l-6,34.6
				h-10.2L356.3,102.8z"/>
			<path class="st1" d="M446.2,102.8h10.2l12.7,38.2l12.8-38.2H492l9.2,54.8h-10.1l-5.9-34.6l-11.6,34.6h-9.2L452.9,123l-6,34.6
				h-10.2L446.2,102.8z"/>
			<path class="st1" d="M535.4,101.4c7.7,0,14.4,2.8,20,8.4c5.6,5.6,8.4,12.4,8.4,20.5c0,8-2.8,14.8-8.3,20.3
				c-5.5,5.5-12.2,8.3-20,8.3c-8.2,0-15.1-2.8-20.5-8.5c-5.4-5.7-8.2-12.4-8.2-20.3c0-5.2,1.3-10,3.8-14.4c2.5-4.4,6-7.9,10.4-10.4
				C525.5,102.7,530.3,101.4,535.4,101.4z M535.3,111.6c-5.1,0-9.3,1.8-12.8,5.3c-3.5,3.5-5.2,8-5.2,13.4c0,6.1,2.2,10.8,6.5,14.4
				c3.4,2.8,7.3,4.1,11.6,4.1c4.9,0,9.2-1.8,12.6-5.4c3.5-3.6,5.2-8,5.2-13.2c0-5.2-1.8-9.6-5.3-13.2
				C544.5,113.5,540.3,111.6,535.3,111.6z"/>
			<path class="st1" d="M609,157.6l-15.2-40.3l-15.4,40.3h-11.1l21.1-54.8h10.6l21.1,54.8H609z"/>
			<path class="st1" d="M652.3,101.4c7.7,0,14.4,2.8,20,8.4c5.6,5.6,8.4,12.4,8.4,20.5c0,8-2.8,14.8-8.3,20.3
				c-5.5,5.5-12.2,8.3-20,8.3c-8.2,0-15.1-2.8-20.5-8.5c-5.4-5.7-8.2-12.4-8.2-20.3c0-5.2,1.3-10,3.8-14.4c2.5-4.4,6-7.9,10.4-10.4
				C642.4,102.7,647.2,101.4,652.3,101.4z M652.2,111.6c-5.1,0-9.3,1.8-12.8,5.3c-3.5,3.5-5.2,8-5.2,13.4c0,6.1,2.2,10.8,6.5,14.4
				c3.4,2.8,7.3,4.1,11.6,4.1c4.9,0,9.2-1.8,12.6-5.4c3.5-3.6,5.2-8,5.2-13.2c0-5.2-1.8-9.6-5.3-13.2
				C661.4,113.5,657.2,111.6,652.2,111.6z"/>
			<path class="st1" d="M708.2,102.8h10.5l17.6,45h6.1v18h-10.1v-8.2h-37.7v8.2h-10.1v-18h6.1L708.2,102.8z M713.6,117.3l-12,30.4
				h24L713.6,117.3z"/>
			<path class="st1" d="M749.3,102.8h29.9V113h-19.5v9.9h19.5v10h-19.5v14.4h19.5v10.2h-29.9V102.8z"/>
			<path class="st1" d="M812.9,133.3l-1.4-1.6l-15.4,25.9h-12.4l20.2-31.7l-18.4-23.1h12.5l14.8,19.6v-19.6h10.6v19.6l14.8-19.6
				h12.6l-18.4,23.1l20.2,31.7h-12.4l-15.4-25.9l-1.4,1.6v24.3h-10.6V133.3z"/>
			<path class="st1" d="M900,102.8v54.8h-10.4v-34.3l-20.4,34.3h-9.1v-54.8h10.4v35.4l20.7-35.4H900z"/>
		</g>
		<g>
			<path class="st1" d="M223.3,186.2h4.7c2.9,0,5,0.3,6.4,0.9c1.4,0.6,2.5,1.6,3.4,2.9c0.9,1.3,1.3,2.7,1.3,4.2
				c0,1.3-0.3,2.5-0.9,3.6c-0.6,1.1-1.5,2.1-2.6,2.8c2.7,1.9,4.1,4.4,4.1,7.5c0,1.6-0.4,3.1-1.3,4.5c-0.9,1.4-1.9,2.4-3.2,3
				c-1.3,0.6-3.1,1-5.5,1h-10.5L223.3,186.2z M225.6,211.3l3.4,0.1c1.7,0,3-0.3,3.8-1c0.8-0.7,1.2-1.6,1.2-2.8
				c0-0.9-0.2-1.6-0.7-2.3c-0.5-0.7-1.1-1.2-1.9-1.4c-0.8-0.3-2.4-0.4-4.6-0.4L225.6,211.3z M227.4,198.4h1c1.5,0,2.6-0.1,3.1-0.3
				c0.5-0.2,1-0.7,1.4-1.3c0.4-0.6,0.6-1.3,0.6-2.1c0-0.7-0.2-1.3-0.5-1.8c-0.3-0.5-0.8-0.9-1.3-1c-0.6-0.2-1.7-0.3-3.3-0.3
				L227.4,198.4z"/>
			<path class="st1" d="M258.2,186.2h4.8l7.6,30.5h-5.6l-1.6-6.5h-12.1l-3.5,6.5h-6.2L258.2,186.2z M262.1,204.9l-2.4-10l-5.4,10
				H262.1z"/>
			<path class="st1" d="M305.3,190.2l-4.2,3.9c-0.9-1-2-1.8-3.3-2.4c-1.3-0.6-2.7-0.8-4.2-0.8c-2.1,0-4.2,0.5-6.1,1.6
				c-1.9,1.1-3.5,2.5-4.5,4.3c-1.1,1.8-1.6,3.7-1.6,5.7c0,2.8,0.9,5.1,2.9,6.9c1.9,1.8,4.4,2.7,7.3,2.7c3.2,0,6-0.9,8.3-2.8l3.4,4.5
				c-3.5,2.4-7.5,3.7-12,3.7c-3.2,0-5.9-0.6-8.2-1.8c-2.2-1.2-4.1-3-5.4-5.4c-1.4-2.4-2-4.9-2-7.7c0-2.9,0.8-5.8,2.4-8.5
				s3.8-4.8,6.5-6.4c2.8-1.6,5.7-2.3,9-2.3C298,185.5,301.9,187.1,305.3,190.2z"/>
			<path class="st1" d="M333.9,186.2l-3.7,30.5h-5.7l2.8-20.2l-14.1,20.2h-5.1l4.2-30.5h5.8l-3.4,21.1l14.5-21.1H333.9z"/>
			<path class="st1" d="M357.1,216.7l-5.4-22.4L340,216.7h-6.2l15.9-30.5h5.9l7.6,30.5H357.1z"/>
			<path class="st1" d="M370.7,186.2h16.4l-0.7,5.4h-10.6l-0.9,6.3h10.7l-0.7,5.4h-10.7l-1.1,8.1h10.8l-0.7,5.3h-16.6L370.7,186.2z"
				/>
			<path class="st1" d="M407.1,185.5c4.2,0,7.6,1.3,10.4,4c2.7,2.7,4.1,6.1,4.1,10.3c0,3.2-0.8,6.2-2.4,9c-1.6,2.8-3.8,5-6.4,6.5
				c-2.7,1.5-5.7,2.3-9.2,2.3c-4.3,0-7.8-1.3-10.4-3.9c-2.6-2.6-3.9-6-3.9-10.2c0-4.8,1.5-8.9,4.6-12.3
				C397.4,187.4,401.8,185.5,407.1,185.5z M406.9,190.9c-2.2,0-4.2,0.5-6,1.6c-1.8,1.1-3.3,2.6-4.4,4.6c-1.1,2-1.7,4-1.7,6.1
				c0,2.5,0.8,4.6,2.3,6.4c1.5,1.7,3.7,2.6,6.6,2.6c3.3,0,6.2-1.2,8.5-3.5c2.3-2.4,3.5-5.2,3.5-8.6c0-2.8-0.8-5-2.5-6.7
				C411.7,191.7,409.6,190.9,406.9,190.9z"/>
			<path class="st1" d="M454.8,190.2l-4.2,3.9c-0.9-1-2-1.8-3.3-2.4c-1.3-0.6-2.7-0.8-4.2-0.8c-2.1,0-4.2,0.5-6.1,1.6
				c-1.9,1.1-3.5,2.5-4.5,4.3c-1.1,1.8-1.6,3.7-1.6,5.7c0,2.8,0.9,5.1,2.9,6.9c1.9,1.8,4.4,2.7,7.3,2.7c3.2,0,6-0.9,8.3-2.8l3.4,4.5
				c-3.5,2.4-7.5,3.7-12,3.7c-3.2,0-5.9-0.6-8.2-1.8c-2.2-1.2-4.1-3-5.4-5.4c-1.4-2.4-2-4.9-2-7.7c0-2.9,0.8-5.8,2.4-8.5
				s3.8-4.8,6.5-6.4c2.8-1.6,5.7-2.3,9-2.3C447.5,185.5,451.5,187.1,454.8,190.2z"/>
			<path class="st1" d="M457.9,186.2h18.6l-0.7,5.4h-6.4l-3.4,25.1h-5.7l3.4-25.1h-6.6L457.9,186.2z"/>
			<path class="st1" d="M479.8,186.2h5.3c3.3,0,5.5,0.3,6.9,0.9c1.7,0.7,2.9,1.7,3.8,2.9c0.9,1.3,1.3,2.7,1.3,4.4
				c0,1.9-0.5,3.5-1.5,5c-1,1.5-2.3,2.6-4,3.3c-1.7,0.7-4.5,1.1-8.4,1.1l-1.8,12.9h-5.7L479.8,186.2z M483.8,198.5
				c3.1,0,5.1-0.3,6.1-1c0.9-0.6,1.4-1.6,1.4-2.8c0-0.7-0.2-1.3-0.6-1.8c-0.4-0.5-0.9-0.8-1.6-1s-2.2-0.3-4.3-0.3L483.8,198.5z"/>
			<path class="st1" d="M517.5,185.5c4.2,0,7.6,1.3,10.4,4c2.7,2.7,4.1,6.1,4.1,10.3c0,3.2-0.8,6.2-2.4,9c-1.6,2.8-3.8,5-6.4,6.5
				c-2.7,1.5-5.7,2.3-9.2,2.3c-4.3,0-7.8-1.3-10.4-3.9c-2.6-2.6-3.9-6-3.9-10.2c0-4.8,1.5-8.9,4.6-12.3
				C507.7,187.4,512.1,185.5,517.5,185.5z M517.3,190.9c-2.2,0-4.2,0.5-6,1.6c-1.8,1.1-3.3,2.6-4.4,4.6c-1.1,2-1.7,4-1.7,6.1
				c0,2.5,0.8,4.6,2.3,6.4c1.5,1.7,3.7,2.6,6.6,2.6c3.3,0,6.2-1.2,8.5-3.5s3.5-5.2,3.5-8.6c0-2.8-0.8-5-2.5-6.7
				C522.1,191.7,519.9,190.9,517.3,190.9z"/>
			<path class="st1" d="M539.2,186.2h4.7c2.9,0,5,0.3,6.4,0.9c1.4,0.6,2.5,1.6,3.4,2.9c0.9,1.3,1.3,2.7,1.3,4.2
				c0,1.3-0.3,2.5-0.9,3.6c-0.6,1.1-1.5,2.1-2.6,2.8c2.7,1.9,4.1,4.4,4.1,7.5c0,1.6-0.4,3.1-1.3,4.5c-0.9,1.4-1.9,2.4-3.2,3
				c-1.3,0.6-3.1,1-5.5,1H535L539.2,186.2z M541.5,211.3l3.4,0.1c1.7,0,3-0.3,3.8-1c0.8-0.7,1.2-1.6,1.2-2.8c0-0.9-0.2-1.6-0.7-2.3
				c-0.5-0.7-1.1-1.2-1.9-1.4c-0.8-0.3-2.4-0.4-4.6-0.4L541.5,211.3z M543.3,198.4h1c1.5,0,2.6-0.1,3.1-0.3c0.5-0.2,1-0.7,1.4-1.3
				c0.4-0.6,0.6-1.3,0.6-2.1c0-0.7-0.2-1.3-0.5-1.8c-0.3-0.5-0.8-0.9-1.3-1c-0.6-0.2-1.7-0.3-3.3-0.3L543.3,198.4z"/>
			<path class="st1" d="M589.8,190.2l-4.2,3.9c-0.9-1-2-1.8-3.3-2.4c-1.3-0.6-2.7-0.8-4.2-0.8c-2.1,0-4.2,0.5-6.1,1.6
				c-1.9,1.1-3.5,2.5-4.5,4.3c-1.1,1.8-1.6,3.7-1.6,5.7c0,2.8,1,5.1,2.9,6.9c1.9,1.8,4.4,2.7,7.3,2.7c3.2,0,6-0.9,8.3-2.8l3.4,4.5
				c-3.5,2.4-7.5,3.7-12,3.7c-3.2,0-5.9-0.6-8.2-1.8c-2.2-1.2-4.1-3-5.4-5.4c-1.4-2.4-2-4.9-2-7.7c0-2.9,0.8-5.8,2.4-8.5
				c1.6-2.7,3.8-4.8,6.5-6.4c2.8-1.6,5.7-2.3,9-2.3C582.5,185.5,586.4,187.1,589.8,190.2z"/>
			<path class="st1" d="M597,186.2h5.9l-1.4,10.5l9.7-10.5h7l-12.1,13.2l8.6,17.2h-6.5l-6.8-14.2l-0.7,0.7l-1.8,13.5h-5.9L597,186.2
				z"/>
			<path class="st1" d="M637.1,185.5c4.2,0,7.6,1.3,10.4,4c2.7,2.7,4.1,6.1,4.1,10.3c0,3.2-0.8,6.2-2.4,9c-1.6,2.8-3.8,5-6.4,6.5
				c-2.7,1.5-5.7,2.3-9.2,2.3c-4.3,0-7.8-1.3-10.4-3.9c-2.6-2.6-3.9-6-3.9-10.2c0-4.8,1.5-8.9,4.6-12.3
				C627.3,187.4,631.7,185.5,637.1,185.5z M636.9,190.9c-2.2,0-4.2,0.5-6,1.6c-1.8,1.1-3.3,2.6-4.4,4.6c-1.1,2-1.7,4-1.7,6.1
				c0,2.5,0.8,4.6,2.3,6.4c1.5,1.7,3.7,2.6,6.6,2.6c3.3,0,6.2-1.2,8.5-3.5s3.5-5.2,3.5-8.6c0-2.8-0.8-5-2.5-6.7
				C641.7,191.7,639.5,190.9,636.9,190.9z"/>
			<path class="st1" d="M658.8,186.2h15.1l-0.8,5.7h-9.3l-3.4,24.8h-5.7L658.8,186.2z"/>
			<path class="st1" d="M692.4,185.5c4.2,0,7.6,1.3,10.4,4c2.7,2.7,4.1,6.1,4.1,10.3c0,3.2-0.8,6.2-2.4,9c-1.6,2.8-3.8,5-6.4,6.5
				c-2.7,1.5-5.7,2.3-9.2,2.3c-4.3,0-7.8-1.3-10.4-3.9c-2.6-2.6-3.9-6-3.9-10.2c0-4.8,1.5-8.9,4.6-12.3
				C682.7,187.4,687.1,185.5,692.4,185.5z M692.2,190.9c-2.2,0-4.2,0.5-6,1.6c-1.8,1.1-3.3,2.6-4.4,4.6c-1.1,2-1.7,4-1.7,6.1
				c0,2.5,0.8,4.6,2.3,6.4c1.5,1.7,3.7,2.6,6.6,2.6c3.3,0,6.2-1.2,8.5-3.5s3.5-5.2,3.5-8.6c0-2.8-0.8-5-2.5-6.7
				C697,191.7,694.9,190.9,692.2,190.9z"/>
			<path class="st1" d="M726,186.2h5.3c3.3,0,5.5,0.3,6.9,0.9c1.7,0.7,2.9,1.7,3.8,2.9c0.9,1.3,1.3,2.7,1.3,4.4c0,1.9-0.5,3.5-1.5,5
				c-1,1.5-2.3,2.6-4,3.3c-1.7,0.7-4.5,1.1-8.4,1.1l-1.8,12.9h-5.7L726,186.2z M730.1,198.5c3.1,0,5.1-0.3,6.1-1
				c0.9-0.6,1.4-1.6,1.4-2.8c0-0.7-0.2-1.3-0.6-1.8c-0.4-0.5-0.9-0.8-1.6-1s-2.2-0.3-4.3-0.3L730.1,198.5z"/>
			<path class="st1" d="M760.1,186.2h4.8l7.6,30.5H767l-1.6-6.5h-12.1l-3.5,6.5h-6.2L760.1,186.2z M764,204.9l-2.4-10l-5.4,10H764z"
				/>
			<path class="st1" d="M802.7,186.2l-3.7,30.5h-5.7l2.8-20.2l-14.1,20.2h-5.1l4.2-30.5h5.8l-3.4,21.1l14.5-21.1H802.7z
				 M785.1,178.1h4.6c0.2,0.6,0.6,0.9,1.1,1.2c0.7,0.3,1.6,0.5,2.6,0.5c0.9,0,1.8-0.1,2.4-0.4c0.7-0.3,1.2-0.7,1.7-1.3h4.6
				c-0.5,1.8-1.6,3.2-3.2,4.2c-1.6,1-3.6,1.6-6.1,1.6c-2.6,0-4.5-0.5-5.8-1.6C785.7,181.3,785.1,179.8,785.1,178.1z"/>
			<path class="st1" d="M824,185.5c4.2,0,7.6,1.3,10.4,4c2.7,2.7,4.1,6.1,4.1,10.3c0,3.2-0.8,6.2-2.4,9c-1.6,2.8-3.8,5-6.4,6.5
				c-2.7,1.5-5.7,2.3-9.2,2.3c-4.3,0-7.8-1.3-10.4-3.9c-2.6-2.6-3.9-6-3.9-10.2c0-4.8,1.5-8.9,4.6-12.3
				C814.2,187.4,818.6,185.5,824,185.5z M823.8,190.9c-2.2,0-4.2,0.5-6,1.6c-1.8,1.1-3.3,2.6-4.4,4.6c-1.1,2-1.7,4-1.7,6.1
				c0,2.5,0.8,4.6,2.3,6.4c1.5,1.7,3.7,2.6,6.6,2.6c3.3,0,6.2-1.2,8.5-3.5s3.5-5.2,3.5-8.6c0-2.8-0.8-5-2.5-6.7
				C828.6,191.7,826.5,190.9,823.8,190.9z"/>
			<path class="st1" d="M845.6,186.2h5.7l-1.6,11.5h10.5l1.6-11.5h5.8l-4.2,30.5h-5.7l1.9-13.8h-10.5l-1.9,13.8h-5.7L845.6,186.2z"
				/>
			<path class="st1" d="M884.9,186.2h4.8l7.6,30.5h-5.6l-1.6-6.5h-12.1l-3.5,6.5h-6.2L884.9,186.2z M888.8,204.9l-2.4-10l-5.4,10
				H888.8z"/>
		</g>
	</g>
</g>
</svg>
