<?xml version="1.0" encoding="utf-8"?>
<!-- Generator: Adobe Illustrator 22.0.1, SVG Export Plug-In . SVG Version: 6.00 Build 0)  -->
<svg version="1.1" id="Layer_1" xmlns="http://www.w3.org/2000/svg" xmlns:xlink="http://www.w3.org/1999/xlink" x="0px" y="0px"
	 viewBox="0 0 900 300" style="enable-background:new 0 0 900 300;" xml:space="preserve">
<style type="text/css">
	.st0{fill:#FFFFFF;fill-opacity:0;}
	.st1{opacity:0.3;fill:#FFFFFF;}
	.st2{fill:none;}
	.st3{fill:#FFFFFF;}
	.st4{opacity:0.3;}
</style>
<rect class="st0" width="900" height="300"/>
<g>
	<polygon class="st1" points="170.9,87.1 170.9,212.7 156.7,212.7 156.7,163.9 123.2,163.9 123.2,212.7 89.7,212.7 89.7,163.9 
		56.3,163.9 56.3,212.7 42.1,212.7 42.1,87.1 	"/>
	<rect x="132.6" y="173.3" class="st2" width="14.7" height="39.4"/>
	<rect x="65.7" y="173.3" class="st2" width="14.7" height="39.4"/>
	<path class="st3" d="M180.3,83.1V50h-50.5V37.5H83.1V50H32.7v33.1H0v139.1h170.9v40.4h693.9l35.1-40.4V83.1H180.3z M32.7,212.7H9.4
		V92.4h23.2V212.7z M180.3,92.4h23.2v120.3h-23.2V92.4z M42.1,59.4h50.5V46.9h27.9v12.5h50.5v18.3H42.1V59.4z M80.3,212.7H65.7
		v-39.4h14.7V212.7z M123.2,212.7H89.7v-48.8H56.3v48.8H42.1V87.1h128.9v125.6h-14.2v-48.8h-33.4V212.7z M132.6,173.3h14.7v39.4
		h-14.7V173.3z M180.3,222.1h20.5l-20.5,22.4V222.1z M890.6,218.8l-30.2,34.3H186.1l26.9-31V92.4h677.6V218.8z"/>
	<g>
		<rect x="101.8" y="179.7" class="st3" width="9.4" height="17.4"/>
	</g>
	<g>
		<g>
			<rect x="66.9" y="102.4" class="st3" width="9.4" height="12.2"/>
		</g>
		<g>
			<rect x="66.9" y="129.4" class="st3" width="9.4" height="17.6"/>
		</g>
		<g>
			<rect x="102.5" y="102.4" class="st3" width="9.4" height="12.2"/>
		</g>
		<g>
			<rect x="102.5" y="129.4" class="st3" width="9.4" height="17.6"/>
		</g>
		<g>
			<rect x="136.7" y="102.4" class="st3" width="9.4" height="12.2"/>
		</g>
		<g>
			<rect x="136.7" y="129.4" class="st3" width="9.4" height="17.6"/>
		</g>
	</g>
	<g class="st4">
		<polygon class="st3" points="200.9,222.1 180.3,244.5 180.3,222.1 		"/>
	</g>
	<g>
		<path class="st3" d="M261.6,122.4h9.6l16,40.9h5.5v16.4h-9.2v-7.5h-34.3v7.5h-9.2v-16.4h5.5L261.6,122.4z M266.5,135.6l-10.9,27.7
			h21.8L266.5,135.6z"/>
		<path class="st3" d="M322.5,121.1c7.1,0,13.1,2.6,18.2,7.7c5.1,5.1,7.6,11.3,7.6,18.7c0,7.3-2.5,13.4-7.5,18.5
			c-5,5-11.1,7.6-18.2,7.6c-7.5,0-13.7-2.6-18.7-7.8c-4.9-5.2-7.4-11.3-7.4-18.4c0-4.8,1.2-9.1,3.5-13.1c2.3-4,5.5-7.2,9.5-9.5
			C313.5,122.3,317.8,121.1,322.5,121.1z M322.4,130.4c-4.6,0-8.5,1.6-11.6,4.8c-3.1,3.2-4.7,7.3-4.7,12.2c0,5.5,2,9.9,5.9,13.1
			c3.1,2.5,6.6,3.8,10.6,3.8c4.5,0,8.3-1.6,11.5-4.9c3.2-3.3,4.8-7.3,4.8-12c0-4.7-1.6-8.8-4.8-12
			C330.8,132.1,326.9,130.4,322.4,130.4z"/>
		<path class="st3" d="M362.1,122.4h9.2l11.6,34.8l11.7-34.8h9.2l8.4,49.8h-9.2l-5.3-31.5L387,172.2h-8.4l-10.5-31.5l-5.5,31.5h-9.3
			L362.1,122.4z"/>
		<path class="st3" d="M443.9,122.4h9.2l11.6,34.8l11.7-34.8h9.2l8.4,49.8h-9.2l-5.3-31.5l-10.6,31.5h-8.4L450,140.8l-5.5,31.5h-9.3
			L443.9,122.4z"/>
		<path class="st3" d="M525.1,121.1c7.1,0,13.1,2.6,18.2,7.7c5.1,5.1,7.6,11.3,7.6,18.7c0,7.3-2.5,13.4-7.5,18.5
			c-5,5-11.1,7.6-18.2,7.6c-7.5,0-13.7-2.6-18.7-7.8c-4.9-5.2-7.4-11.3-7.4-18.4c0-4.8,1.2-9.1,3.5-13.1c2.3-4,5.5-7.2,9.5-9.5
			C516.1,122.3,520.4,121.1,525.1,121.1z M525,130.4c-4.6,0-8.5,1.6-11.6,4.8c-3.1,3.2-4.7,7.3-4.7,12.2c0,5.5,2,9.9,5.9,13.1
			c3.1,2.5,6.6,3.8,10.6,3.8c4.5,0,8.3-1.6,11.5-4.9c3.2-3.3,4.8-7.3,4.8-12c0-4.7-1.6-8.8-4.8-12
			C533.4,132.1,529.6,130.4,525,130.4z"/>
		<path class="st3" d="M592.1,172.2l-13.8-36.7l-14,36.7h-10.1l19.2-49.8h9.6l19.2,49.8H592.1z"/>
		<path class="st3" d="M631.5,121.1c7.1,0,13.1,2.6,18.2,7.7c5.1,5.1,7.6,11.3,7.6,18.7c0,7.3-2.5,13.4-7.5,18.5
			c-5,5-11.1,7.6-18.2,7.6c-7.5,0-13.7-2.6-18.7-7.8c-4.9-5.2-7.4-11.3-7.4-18.4c0-4.8,1.2-9.1,3.5-13.1c2.3-4,5.5-7.2,9.5-9.5
			C622.5,122.3,626.9,121.1,631.5,121.1z M631.4,130.4c-4.6,0-8.5,1.6-11.6,4.8c-3.1,3.2-4.7,7.3-4.7,12.2c0,5.5,2,9.9,5.9,13.1
			c3.1,2.5,6.6,3.8,10.6,3.8c4.5,0,8.3-1.6,11.5-4.9c3.2-3.3,4.8-7.3,4.8-12c0-4.7-1.6-8.8-4.8-12
			C639.9,132.1,636,130.4,631.4,130.4z"/>
		<path class="st3" d="M682.5,122.4h9.6l16,40.9h5.5v16.4h-9.2v-7.5h-34.3v7.5H661v-16.4h5.5L682.5,122.4z M687.4,135.6l-10.9,27.7
			h21.8L687.4,135.6z"/>
		<path class="st3" d="M719.8,122.4h27.2v9.3h-17.8v9h17.8v9.1h-17.8v13.1h17.8v9.3h-27.2V122.4z"/>
		<path class="st3" d="M777.8,150.1l-1.3-1.5l-14.1,23.6h-11.3l18.4-28.9l-16.7-21h11.4l13.5,17.9v-17.9h9.6v17.8l13.5-17.8h11.5
			l-16.7,21l18.4,28.8h-11.3l-14.1-23.6l-1.3,1.5v22.1h-9.6V150.1z"/>
		<path class="st3" d="M857.1,122.4v49.8h-9.5V141L829,172.2h-8.3v-49.8h9.5v32.2l18.8-32.2H857.1z"/>
	</g>
	<g>
		<path class="st3" d="M240.9,193.9h4.3c2.6,0,4.6,0.3,5.8,0.8s2.3,1.4,3.1,2.6c0.8,1.2,1.2,2.5,1.2,3.9c0,1.2-0.3,2.2-0.8,3.3
			c-0.6,1-1.3,1.9-2.4,2.6c2.5,1.7,3.7,4,3.7,6.9c0,1.5-0.4,2.8-1.2,4.1c-0.8,1.2-1.8,2.1-2.9,2.7c-1.2,0.6-2.8,0.9-5,0.9h-9.6
			L240.9,193.9z M243.1,216.7l3.1,0.1c1.6,0,2.7-0.3,3.4-0.9c0.7-0.6,1.1-1.5,1.1-2.5c0-0.8-0.2-1.5-0.7-2.1c-0.4-0.6-1-1-1.8-1.3
			c-0.7-0.3-2.1-0.4-4.2-0.4L243.1,216.7z M244.6,204.9h0.9c1.4,0,2.3-0.1,2.8-0.3c0.5-0.2,0.9-0.6,1.3-1.2c0.4-0.6,0.5-1.2,0.5-1.9
			c0-0.6-0.2-1.2-0.5-1.7c-0.3-0.5-0.7-0.8-1.2-0.9c-0.5-0.2-1.5-0.2-3-0.2L244.6,204.9z"/>
		<path class="st3" d="M272.8,193.9h4.4l6.9,27.8H279l-1.5-5.9h-11l-3.2,5.9h-5.6L272.8,193.9z M276.3,210.9l-2.2-9.1l-4.9,9.1
			H276.3z"/>
		<path class="st3" d="M315.6,197.5l-3.8,3.5c-0.8-0.9-1.8-1.7-3-2.2c-1.2-0.5-2.5-0.8-3.9-0.8c-1.9,0-3.8,0.5-5.6,1.5
			c-1.8,1-3.2,2.3-4.1,3.9c-1,1.6-1.5,3.4-1.5,5.2c0,2.5,0.9,4.6,2.6,6.3c1.7,1.7,4,2.5,6.7,2.5c2.9,0,5.4-0.8,7.5-2.5l3.1,4.1
			c-3.2,2.2-6.8,3.3-11,3.3c-2.9,0-5.4-0.6-7.4-1.7c-2-1.1-3.7-2.7-4.9-4.9c-1.2-2.1-1.9-4.5-1.9-7c0-2.7,0.7-5.2,2.2-7.7
			c1.5-2.5,3.5-4.4,6-5.8c2.5-1.4,5.2-2.1,8.2-2.1C309,193.2,312.6,194.6,315.6,197.5z"/>
		<path class="st3" d="M341.7,193.9l-3.4,27.8h-5.2l2.5-18.4l-12.9,18.4h-4.6l3.8-27.8h5.3l-3.1,19.2l13.2-19.2H341.7z"/>
		<path class="st3" d="M362.7,221.7l-4.9-20.4l-10.6,20.4h-5.6l14.4-27.8h5.3l7,27.8H362.7z"/>
		<path class="st3" d="M375.2,193.9h14.9l-0.6,4.9h-9.7l-0.8,5.7h9.7l-0.6,4.9h-9.8l-1,7.4h9.8l-0.6,4.9h-15.1L375.2,193.9z"/>
		<path class="st3" d="M408.4,193.2c3.8,0,7,1.2,9.4,3.7c2.5,2.5,3.7,5.6,3.7,9.3c0,2.9-0.7,5.6-2.2,8.2c-1.5,2.6-3.4,4.5-5.8,5.9
			c-2.4,1.4-5.2,2.1-8.4,2.1c-4,0-7.1-1.2-9.5-3.5c-2.4-2.3-3.5-5.4-3.5-9.2c0-4.3,1.4-8.1,4.2-11.2
			C399.4,194.9,403.5,193.2,408.4,193.2z M408.2,198.1c-2,0-3.8,0.5-5.4,1.4c-1.6,1-3,2.3-4,4.2c-1,1.8-1.5,3.7-1.5,5.6
			c0,2.3,0.7,4.2,2.1,5.8c1.4,1.6,3.4,2.4,6,2.4c3,0,5.6-1.1,7.7-3.2c2.1-2.1,3.2-4.7,3.2-7.8c0-2.5-0.7-4.6-2.2-6.1
			C412.5,198.9,410.6,198.1,408.2,198.1z"/>
		<path class="st3" d="M451.7,197.5l-3.8,3.5c-0.8-0.9-1.8-1.7-3-2.2c-1.2-0.5-2.5-0.8-3.9-0.8c-1.9,0-3.8,0.5-5.6,1.5
			c-1.8,1-3.2,2.3-4.1,3.9c-1,1.6-1.5,3.4-1.5,5.2c0,2.5,0.9,4.6,2.6,6.3c1.7,1.7,4,2.5,6.7,2.5c2.9,0,5.4-0.8,7.5-2.5l3.1,4.1
			c-3.2,2.2-6.8,3.3-11,3.3c-2.9,0-5.4-0.6-7.4-1.7c-2-1.1-3.7-2.7-4.9-4.9c-1.2-2.1-1.9-4.5-1.9-7c0-2.7,0.7-5.2,2.2-7.7
			c1.5-2.5,3.5-4.4,6-5.8c2.5-1.4,5.2-2.1,8.2-2.1C445.1,193.2,448.7,194.6,451.7,197.5z"/>
		<path class="st3" d="M454.6,193.9h16.9l-0.6,4.9h-5.8l-3.1,22.8h-5.2l3.1-22.8h-6L454.6,193.9z"/>
		<path class="st3" d="M474.5,193.9h4.9c3,0,5,0.3,6.3,0.8c1.5,0.6,2.6,1.5,3.4,2.7c0.8,1.1,1.2,2.5,1.2,4c0,1.7-0.5,3.2-1.4,4.6
			c-0.9,1.4-2.1,2.4-3.7,3c-1.5,0.6-4.1,1-7.6,1l-1.6,11.7h-5.2L474.5,193.9z M478.2,205c2.8,0,4.7-0.3,5.5-0.9
			c0.9-0.6,1.3-1.4,1.3-2.6c0-0.6-0.2-1.2-0.5-1.6c-0.3-0.4-0.8-0.7-1.5-0.9c-0.7-0.2-2-0.3-3.9-0.3L478.2,205z"/>
		<path class="st3" d="M508.8,193.2c3.8,0,7,1.2,9.4,3.7c2.5,2.5,3.7,5.6,3.7,9.3c0,2.9-0.7,5.6-2.2,8.2c-1.5,2.6-3.4,4.5-5.8,5.9
			c-2.4,1.4-5.2,2.1-8.4,2.1c-4,0-7.1-1.2-9.5-3.5c-2.4-2.3-3.5-5.4-3.5-9.2c0-4.3,1.4-8.1,4.2-11.2
			C499.9,194.9,503.9,193.2,508.8,193.2z M508.6,198.1c-2,0-3.8,0.5-5.4,1.4c-1.6,1-3,2.3-4,4.2c-1,1.8-1.5,3.7-1.5,5.6
			c0,2.3,0.7,4.2,2.1,5.8c1.4,1.6,3.4,2.4,6,2.4c3,0,5.6-1.1,7.7-3.2c2.1-2.1,3.2-4.7,3.2-7.8c0-2.5-0.7-4.6-2.2-6.1
			C513,198.9,511.1,198.1,508.6,198.1z"/>
		<path class="st3" d="M528.6,193.9h4.3c2.6,0,4.6,0.3,5.8,0.8c1.3,0.6,2.3,1.4,3.1,2.6c0.8,1.2,1.2,2.5,1.2,3.9
			c0,1.2-0.3,2.2-0.8,3.3c-0.6,1-1.3,1.9-2.4,2.6c2.5,1.7,3.7,4,3.7,6.9c0,1.5-0.4,2.8-1.2,4.1c-0.8,1.2-1.8,2.1-2.9,2.7
			c-1.2,0.6-2.8,0.9-5,0.9h-9.6L528.6,193.9z M530.7,216.7l3.1,0.1c1.6,0,2.7-0.3,3.4-0.9c0.7-0.6,1.1-1.5,1.1-2.5
			c0-0.8-0.2-1.5-0.7-2.1c-0.4-0.6-1-1-1.8-1.3c-0.7-0.3-2.1-0.4-4.2-0.4L530.7,216.7z M532.3,204.9h0.9c1.4,0,2.3-0.1,2.8-0.3
			c0.5-0.2,0.9-0.6,1.3-1.2c0.4-0.6,0.5-1.2,0.5-1.9c0-0.6-0.2-1.2-0.5-1.7c-0.3-0.5-0.7-0.8-1.2-0.9c-0.5-0.2-1.5-0.2-3-0.2
			L532.3,204.9z"/>
		<path class="st3" d="M574.6,197.5l-3.8,3.5c-0.8-0.9-1.8-1.7-3-2.2c-1.2-0.5-2.5-0.8-3.9-0.8c-1.9,0-3.8,0.5-5.6,1.5
			c-1.8,1-3.2,2.3-4.1,3.9c-1,1.6-1.5,3.4-1.5,5.2c0,2.5,0.9,4.6,2.6,6.3c1.7,1.7,4,2.5,6.7,2.5c2.9,0,5.4-0.8,7.5-2.5l3.1,4.1
			c-3.2,2.2-6.8,3.3-11,3.3c-2.9,0-5.4-0.6-7.4-1.7c-2-1.1-3.7-2.7-4.9-4.9c-1.2-2.1-1.9-4.5-1.9-7c0-2.7,0.7-5.2,2.2-7.7
			c1.5-2.5,3.5-4.4,6-5.8s5.2-2.1,8.2-2.1C568,193.2,571.6,194.6,574.6,197.5z"/>
		<path class="st3" d="M581.2,193.9h5.3l-1.3,9.6l8.8-9.6h6.4l-11,12.1l7.8,15.7h-5.9l-6.2-12.9l-0.7,0.6l-1.7,12.3h-5.3
			L581.2,193.9z"/>
		<path class="st3" d="M617.7,193.2c3.8,0,7,1.2,9.4,3.7c2.5,2.5,3.7,5.6,3.7,9.3c0,2.9-0.7,5.6-2.2,8.2c-1.5,2.6-3.4,4.5-5.8,5.9
			c-2.4,1.4-5.2,2.1-8.4,2.1c-4,0-7.1-1.2-9.5-3.5c-2.4-2.3-3.5-5.4-3.5-9.2c0-4.3,1.4-8.1,4.2-11.2
			C608.8,194.9,612.8,193.2,617.7,193.2z M617.5,198.1c-2,0-3.8,0.5-5.4,1.4c-1.6,1-3,2.3-4,4.2c-1,1.8-1.5,3.7-1.5,5.6
			c0,2.3,0.7,4.2,2.1,5.8c1.4,1.6,3.4,2.4,6,2.4c3,0,5.6-1.1,7.7-3.2c2.1-2.1,3.2-4.7,3.2-7.8c0-2.5-0.7-4.6-2.2-6.1
			C621.9,198.9,620,198.1,617.5,198.1z"/>
		<path class="st3" d="M637.4,193.9h13.7l-0.7,5.2H642l-3.1,22.6h-5.2L637.4,193.9z"/>
		<path class="st3" d="M668.1,193.2c3.8,0,7,1.2,9.4,3.7c2.5,2.5,3.7,5.6,3.7,9.3c0,2.9-0.7,5.6-2.2,8.2c-1.5,2.6-3.4,4.5-5.8,5.9
			c-2.4,1.4-5.2,2.1-8.4,2.1c-4,0-7.1-1.2-9.5-3.5c-2.4-2.3-3.5-5.4-3.5-9.2c0-4.3,1.4-8.1,4.2-11.2
			C659.2,194.9,663.2,193.2,668.1,193.2z M667.9,198.1c-2,0-3.8,0.5-5.4,1.4c-1.6,1-3,2.3-4,4.2c-1,1.8-1.5,3.7-1.5,5.6
			c0,2.3,0.7,4.2,2.1,5.8c1.4,1.6,3.4,2.4,6,2.4c3,0,5.6-1.1,7.7-3.2c2.1-2.1,3.2-4.7,3.2-7.8c0-2.5-0.7-4.6-2.2-6.1
			C672.3,198.9,670.3,198.1,667.9,198.1z"/>
		<path class="st3" d="M698.7,193.9h4.9c3,0,5,0.3,6.3,0.8c1.5,0.6,2.6,1.5,3.4,2.7c0.8,1.1,1.2,2.5,1.2,4c0,1.7-0.5,3.2-1.4,4.6
			c-0.9,1.4-2.1,2.4-3.7,3c-1.5,0.6-4.1,1-7.6,1l-1.6,11.7h-5.2L698.7,193.9z M702.4,205c2.8,0,4.7-0.3,5.5-0.9
			c0.9-0.6,1.3-1.4,1.3-2.6c0-0.6-0.2-1.2-0.5-1.6c-0.3-0.4-0.8-0.7-1.5-0.9c-0.7-0.2-2-0.3-3.9-0.3L702.4,205z"/>
		<path class="st3" d="M729.7,193.9h4.4l6.9,27.8H736l-1.5-5.9h-11l-3.2,5.9h-5.6L729.7,193.9z M733.2,210.9l-2.2-9.1l-4.9,9.1
			H733.2z"/>
		<path class="st3" d="M768.5,193.9l-3.4,27.8h-5.2l2.5-18.4l-12.9,18.4H745l3.8-27.8h5.3l-3.1,19.2l13.2-19.2H768.5z M752.5,186.5
			h4.2c0.2,0.5,0.5,0.9,1,1.1c0.6,0.3,1.4,0.5,2.3,0.5c0.9,0,1.6-0.1,2.2-0.4c0.6-0.3,1.1-0.6,1.5-1.2h4.2c-0.5,1.6-1.5,2.9-2.9,3.9
			c-1.4,1-3.3,1.4-5.5,1.4c-2.3,0-4.1-0.5-5.2-1.5C753.1,189.4,752.5,188.1,752.5,186.5z"/>
		<path class="st3" d="M787.9,193.2c3.8,0,7,1.2,9.4,3.7c2.5,2.5,3.7,5.6,3.7,9.3c0,2.9-0.7,5.6-2.2,8.2c-1.5,2.6-3.4,4.5-5.8,5.9
			c-2.4,1.4-5.2,2.1-8.4,2.1c-4,0-7.1-1.2-9.5-3.5c-2.4-2.3-3.5-5.4-3.5-9.2c0-4.3,1.4-8.1,4.2-11.2
			C779,194.9,783,193.2,787.9,193.2z M787.7,198.1c-2,0-3.8,0.5-5.4,1.4c-1.6,1-3,2.3-4,4.2c-1,1.8-1.5,3.7-1.5,5.6
			c0,2.3,0.7,4.2,2.1,5.8c1.4,1.6,3.4,2.4,6,2.4c3,0,5.6-1.1,7.7-3.2c2.1-2.1,3.2-4.7,3.2-7.8c0-2.5-0.7-4.6-2.2-6.1
			C792.1,198.9,790.1,198.1,787.7,198.1z"/>
		<path class="st3" d="M807.6,193.9h5.2l-1.4,10.5h9.5l1.4-10.5h5.2l-3.8,27.8h-5.2l1.7-12.6h-9.5l-1.7,12.6h-5.2L807.6,193.9z"/>
		<path class="st3" d="M843.4,193.9h4.4l6.9,27.8h-5.1l-1.5-5.9h-11l-3.2,5.9h-5.6L843.4,193.9z M846.9,210.9l-2.2-9.1l-4.9,9.1
			H846.9z"/>
	</g>
</g>
</svg>
