<?xml version="1.0" encoding="utf-8"?>
<!-- Generator: Adobe Illustrator 22.0.1, SVG Export Plug-In . SVG Version: 6.00 Build 0)  -->
<svg version="1.1" id="Layer_1" xmlns="http://www.w3.org/2000/svg" xmlns:xlink="http://www.w3.org/1999/xlink" x="0px" y="0px"
	 viewBox="0 0 250 250" style="enable-background:new 0 0 250 250;" xml:space="preserve">
<style type="text/css">
	.st0{fill:#FFFFFF;fill-opacity:0;}
	.st1{fill:#FFFFFF;}
</style>
<rect y="0" class="st0" width="250" height="250"/>
<g>
	<g>
		<path class="st1" d="M119.6,190.4c-36.1,0-65.4-29.4-65.4-65.4c0-36.1,29.4-65.4,65.4-65.4c36.1,0,65.4,29.3,65.4,65.4
			c0,8.1-1.5,16.1-4.4,23.6l15.2,39.1l-40.4-7.9C144.8,186.7,132.4,190.4,119.6,190.4z M119.6,67.3c-31.8,0-57.7,25.9-57.7,57.7
			c0,31.8,25.9,57.7,57.7,57.7c11.8,0,23.1-3.5,32.8-10.2l1.3-0.9l29.8,5.9l-11.2-28.9l0.6-1.4c2.9-7,4.4-14.4,4.4-22.1
			C177.3,93.2,151.4,67.3,119.6,67.3z"/>
	</g>
	<g>
		<g>
			<polygon class="st1" points="135.5,148.4 135.5,159.2 104.7,159.2 104.7,148.4 116.3,148.4 116.3,118.3 104.7,118.3 104.7,107.5 
				127.1,107.5 127.1,148.4 			"/>
		</g>
		<g>
			<rect x="116.3" y="87" class="st1" width="10.8" height="10.8"/>
		</g>
	</g>
</g>
</svg>
