<?xml version="1.0" encoding="utf-8"?>
<!-- Generator: Adobe Illustrator 23.0.1, SVG Export Plug-In . SVG Version: 6.00 Build 0)  -->
<svg version="1.1" id="Layer_1" xmlns="http://www.w3.org/2000/svg" xmlns:xlink="http://www.w3.org/1999/xlink" x="0px" y="0px"
	 viewBox="0 0 200 200" style="enable-background:new 0 0 200 200;" xml:space="preserve">
<style type="text/css">
	.st0{opacity:0.3;fill:#FFFFFF;}
	.st1{fill:#FFFFFF;}
</style>
<g>
	<polygon class="st0" points="53.15,131.84 83.61,131.84 83.61,177.98 116.39,177.98 116.39,131.84 146.85,131.84 146.85,177.98 
		161.44,177.98 161.44,58.16 38.56,58.16 38.56,177.98 53.15,177.98 	"/>
	<path class="st1" d="M169.15,55.49V24.26h-47.67V12.43H78.52v11.83H30.85v31.23H0v130.2h30.85h138.31H200V55.49H169.15z
		 M30.85,177.98H7.71V63.2h23.14V177.98z M38.56,31.97h47.67V20.14h27.53v11.83h47.67v18.48H38.56V31.97z M161.44,177.98h-14.59
		v-46.14h-30.46v46.14H83.61v-46.14H53.15v46.14H38.56V58.16h122.88V177.98z M75.9,177.98H60.86v-38.43H75.9V177.98z M139.14,177.98
		H124.1v-38.43h15.04V177.98z M192.29,177.98h-23.14V63.2h23.14V177.98z"/>
	<g>
		<g>
			<rect x="93.83" y="146.23" class="st1" width="12.34" height="16.45"/>
		</g>
	</g>
	<g>
		<g>
			<g>
				<rect x="60.86" y="73.23" class="st1" width="12.34" height="11.57"/>
			</g>
		</g>
		<g>
			<g>
				<rect x="60.86" y="98.68" class="st1" width="12.34" height="16.58"/>
			</g>
		</g>
		<g>
			<g>
				<rect x="94.47" y="73.23" class="st1" width="12.34" height="11.57"/>
			</g>
		</g>
		<g>
			<g>
				<rect x="94.47" y="98.68" class="st1" width="12.34" height="16.58"/>
			</g>
		</g>
		<g>
			<g>
				<rect x="126.8" y="73.23" class="st1" width="12.34" height="11.57"/>
			</g>
		</g>
		<g>
			<g>
				<rect x="126.8" y="98.68" class="st1" width="12.34" height="16.58"/>
			</g>
		</g>
	</g>
</g>
</svg>
