<?xml version="1.0" encoding="utf-8"?>
<!-- Generator: Adobe Illustrator 19.1.0, SVG Export Plug-In . SVG Version: 6.00 Build 0)  -->
<svg version="1.1" id="Layer_1" xmlns="http://www.w3.org/2000/svg" xmlns:xlink="http://www.w3.org/1999/xlink" x="0px" y="0px"
	 viewBox="-172 295.9 250 250" style="enable-background:new -172 295.9 250 250;" xml:space="preserve">
<style type="text/css">
	.st0{fill:#FFFFFF;fill-opacity:0;}
	.st1{fill:#FFFFFF;}
</style>
<rect x="-172" y="295.9" class="st0" width="250" height="250"/>
<g>
	<g>
		<path class="st1" d="M-20.8,504l-13.3-23c-9.6,2.1-19.2,1.8-28.4-0.6l-12.9,22.3l-30.5-17.6l13.3-23c-6.4-7.1-11.1-15.6-13.7-24.9
			h-25.8V402h26.6c2.9-9.1,8-17.4,14.7-24.2l-12.9-22.4l30.5-17.6l13.3,23c9.7-2.1,19.2-1.8,28.4,0.6l12.9-22.3l30.5,17.6l-13.3,23
			c6.4,7.1,11.1,15.6,13.7,24.9h25.8v35.2H11.5c-2.9,9.1-8,17.4-14.7,24.2l12.9,22.4L-20.8,504z M-30.2,471.6l12.3,21.3l16.5-9.5
			l-12.1-20.9l2.4-2.2c7.6-6.9,13-15.8,15.6-25.6l0.8-3H30v-19.1H5.9l-0.7-3.2C3,399.4-2,390.3-9.2,383.1l-2.2-2.2l12.3-21.3
			l-16.5-9.5l-12,20.9l-3.1-1c-9.5-3-19.7-3.4-30-0.6l-3,0.8l-12.3-21.3l-16.5,9.5l12.1,20.9l-2.4,2.2c-7.6,6.9-13,15.8-15.6,25.6
			l-0.8,3H-124v19.1h24.1l0.7,3.2c2.2,10,7.2,19.1,14.4,26.3l2.2,2.2l-12.3,21.3l16.5,9.5l12-20.9l3.1,1c9.6,3,19.7,3.4,30,0.6
			L-30.2,471.6z"/>
	</g>
	<g>
		<path class="st1" d="M-47,449.8c-15.9,0-28.9-13-28.9-28.9S-62.9,392-47,392s28.9,13,28.9,28.9S-31.1,449.8-47,449.8z M-47,400.1
			c-11.5,0-20.8,9.3-20.8,20.8c0,11.5,9.3,20.8,20.8,20.8s20.8-9.3,20.8-20.8C-26.2,409.4-35.5,400.1-47,400.1z"/>
	</g>
</g>
</svg>
