<?xml version="1.0" encoding="utf-8"?>
<!-- Generator: Adobe Illustrator 23.0.1, SVG Export Plug-In . SVG Version: 6.00 Build 0)  -->
<svg version="1.1" id="Layer_1" xmlns="http://www.w3.org/2000/svg" xmlns:xlink="http://www.w3.org/1999/xlink" x="0px" y="0px"
	 viewBox="0 0 250 250" style="enable-background:new 0 0 250 250;" xml:space="preserve">
<style type="text/css">
	.st0{fill:#FFFFFF;fill-opacity:0;}
	.st1{fill:#FFFFFF;}
</style>
<rect class="st0" width="250" height="250"/>
<g>
	<path class="st1" d="M140.7,200.3h-31.4v-19.2c-4.5-1.3-8.8-3-12.9-5.3l-13.6,13.6l-22.2-22.2l13.6-13.6c-2.3-4.1-4.1-8.4-5.4-12.9
		H49.7v-31.4h19.2c1.3-4.5,3-8.8,5.4-12.9L60.6,82.8l22.2-22.2l13.6,13.6c4.1-2.3,8.4-4.1,12.9-5.3V49.7h31.4v19.3
		c4.5,1.3,8.8,3,12.9,5.3l13.6-13.6l22.2,22.2l-13.6,13.6c2.3,4.1,4.1,8.4,5.4,12.9h19.2v31.4h-19.2c-1.3,4.5-3,8.8-5.4,12.9
		l13.6,13.6l-22.2,22.2l-13.6-13.6c-4.1,2.3-8.4,4.1-12.9,5.3V200.3z M117.1,192.6h15.8v-17.6l3-0.7c5.7-1.3,11.1-3.5,16.1-6.7
		l2.6-1.7l12.5,12.5l11.2-11.2l-12.5-12.5l1.7-2.6c3.2-5,5.4-10.4,6.7-16.1l0.7-3h17.6v-15.8h-17.6l-0.7-3
		c-1.3-5.7-3.5-11.1-6.7-16.1l-1.7-2.6l12.5-12.5l-11.2-11.2l-12.5,12.5l-2.6-1.7c-5-3.2-10.4-5.4-16.1-6.7l-3-0.7V57.4h-15.8v17.6
		l-3,0.7c-5.7,1.3-11.1,3.5-16.1,6.7l-2.6,1.7L82.8,71.6L71.6,82.8l12.5,12.5l-1.7,2.6c-3.2,5-5.4,10.4-6.7,16.1l-0.7,3H57.4v15.8
		h17.6l0.7,3c1.3,5.7,3.5,11.1,6.7,16.1l1.7,2.6l-12.5,12.5l11.2,11.2l12.5-12.5l2.6,1.7c5,3.2,10.4,5.4,16.1,6.7l3,0.7V192.6z
		 M125,153.8c-15.9,0-28.8-12.9-28.8-28.8c0-15.9,12.9-28.8,28.8-28.8s28.8,12.9,28.8,28.8C153.8,140.9,140.9,153.8,125,153.8z
		 M125,104c-11.6,0-21,9.4-21,21s9.4,21,21,21s21-9.4,21-21S136.6,104,125,104z"/>
</g>
</svg>
