<?xml version="1.0" encoding="utf-8"?>
<!-- Generator: Adobe Illustrator 23.0.1, SVG Export Plug-In . SVG Version: 6.00 Build 0)  -->
<svg version="1.1" id="Layer_1" xmlns="http://www.w3.org/2000/svg" xmlns:xlink="http://www.w3.org/1999/xlink" x="0px" y="0px"
	 viewBox="0 0 250 250" style="enable-background:new 0 0 250 250;" xml:space="preserve">
<style type="text/css">
	.st0{fill:#FFFFFF;fill-opacity:0;}
	.st1{fill:#FFFFFF;}
	.st2{opacity:0.3;}
</style>
<rect y="0" class="st0" width="250" height="250"/>
<g>
	<g>
		<path class="st1" d="M185.6,91.4v-43L44,85.3v44.6l26.7,7l19.4,64.7h33.2l-18.7-55.9l80.9,21.1v-43H206V91.4H185.6z M112.5,193.8
			H95.9l-16.3-54.6l16,4.2L112.5,193.8z M155.6,150.9l-103.8-27V91.4l103.8-27V150.9z M177.8,156.7l-14.3-3.8V62.3l14.3-3.8V156.7z
			 M198.2,116h-12.6V99.2h12.6V116z"/>
	</g>
	<g class="st2">
		<polygon class="st1" points="112.5,193.8 95.9,193.8 79.6,139.2 95.6,143.4 		"/>
	</g>
</g>
</svg>
