<?xml version="1.0" encoding="utf-8"?>
<!-- Generator: Adobe Illustrator 23.0.1, SVG Export Plug-In . SVG Version: 6.00 Build 0)  -->
<svg version="1.1" id="Layer_1" xmlns="http://www.w3.org/2000/svg" xmlns:xlink="http://www.w3.org/1999/xlink" x="0px" y="0px"
	 viewBox="0 0 200 200" style="enable-background:new 0 0 200 200;" xml:space="preserve">
<style type="text/css">
	.st0{fill:#FFFFFF;}
	.st1{opacity:0.3;fill:#FFFFFF;}
</style>
<g>
	<g>
		<g>
			
				<rect x="48.84" y="49.98" transform="matrix(0.7071 -0.7071 0.7071 0.7071 -20.2723 58.7389)" class="st0" width="23.86" height="7.72"/>
		</g>
	</g>
	<rect x="41.12" y="147.28" class="st1" width="78.74" height="27.92"/>
	<polygon class="st1" points="119.86,101.82 127.58,101.82 158.88,101.82 158.88,58.33 127.58,58.33 119.86,58.33 88.56,58.33 
		88.56,112.5 105.51,101.82 	"/>
	<path class="st0" d="M127.58,50.61V17.46H33.4v122.1v43.36h94.18v-73.38h39.02V50.61H127.58z M158.88,101.82h-31.3h-7.72h-14.35
		L88.56,112.5V58.33h31.3h7.72h31.3V101.82z M119.86,175.2H41.12v-27.92h78.74V175.2z M119.86,139.56H41.12V25.18h25.16L49.69,41.76
		l5.46,5.46l22.01-22.01l-0.04-0.04h42.74v25.43H80.84v75.88l26.9-16.96h12.12V139.56z"/>
	<g>
		<g>
			<rect x="118.03" y="74.72" class="st0" width="11.37" height="10.81"/>
		</g>
	</g>
	<g>
		<g>
			<rect x="137.09" y="74.72" class="st0" width="11.37" height="10.81"/>
		</g>
	</g>
	<g>
		<g>
			<rect x="98.98" y="74.72" class="st0" width="11.38" height="10.81"/>
		</g>
	</g>
	<g>
		<g>
			<rect x="74.52" y="156.28" class="st0" width="11.94" height="10.81"/>
		</g>
	</g>
</g>
</svg>
