<?xml version="1.0" encoding="utf-8"?>
<!-- Generator: Adobe Illustrator 23.0.1, SVG Export Plug-In . SVG Version: 6.00 Build 0)  -->
<svg version="1.1" id="Layer_1" xmlns="http://www.w3.org/2000/svg" xmlns:xlink="http://www.w3.org/1999/xlink" x="0px" y="0px"
	 viewBox="0 0 250 250" style="enable-background:new 0 0 250 250;" xml:space="preserve">
<style type="text/css">
	.st0{opacity:0;fill:#FFFFFF;}
	.st1{fill:#FFFFFF;}
	.st2{opacity:0.3;fill:#FFFFFF;enable-background:new    ;}
</style>
<rect class="st0" width="250" height="250"/>
<g>
	<g>
		<g>
			
				<rect x="73.84" y="74.79" transform="matrix(0.7071 -0.7071 0.7071 0.7071 -30.492 83.6831)" class="st1" width="23.86" height="7.72"/>
		</g>
	</g>
	<rect x="66.12" y="172.09" class="st2" width="78.74" height="27.92"/>
	<polygon class="st2" points="144.86,126.63 152.58,126.63 183.88,126.63 183.88,83.14 152.58,83.14 144.86,83.14 113.56,83.14 
		113.56,137.31 130.51,126.63 	"/>
	<path class="st1" d="M152.58,75.42V42.27H58.4v122.1v43.36h94.18v-73.38h39.02V75.42H152.58z M183.88,126.63h-31.3h-7.72h-14.35
		l-16.95,10.68V83.14h31.3h7.72h31.3V126.63z M144.86,200.01H66.12v-27.92h78.74V200.01z M144.86,164.37H66.12V49.99h25.16
		L74.69,66.57l5.46,5.46l22.01-22.01l-0.04-0.04h42.74v25.43h-39.02v75.88l26.9-16.96h12.12V164.37z"/>
	<g>
		<g>
			<rect x="143.03" y="99.53" class="st1" width="11.37" height="10.81"/>
		</g>
	</g>
	<g>
		<g>
			<rect x="162.09" y="99.53" class="st1" width="11.37" height="10.81"/>
		</g>
	</g>
	<g>
		<g>
			<rect x="123.98" y="99.53" class="st1" width="11.38" height="10.81"/>
		</g>
	</g>
	<g>
		<g>
			<rect x="99.52" y="181.09" class="st1" width="11.94" height="10.81"/>
		</g>
	</g>
</g>
</svg>
