<?xml version="1.0" encoding="utf-8"?>
<!-- Generator: Adobe Illustrator 23.0.1, SVG Export Plug-In . SVG Version: 6.00 Build 0)  -->
<svg version="1.1" id="Layer_1" xmlns="http://www.w3.org/2000/svg" xmlns:xlink="http://www.w3.org/1999/xlink" x="0px" y="0px"
	 viewBox="0 0 200 200" style="enable-background:new 0 0 200 200;" xml:space="preserve">
<style type="text/css">
	.st0{fill:#FFFFFF;}
	.st1{opacity:0.3;fill:#FFFFFF;}
</style>
<g>
	<polygon class="st1" points="168.14,148.06 143.95,148.06 143.95,172.07 165.56,150.62 	"/>
	<polygon class="st1" points="173.64,27.46 149.98,27.46 149.98,41.42 137.63,41.42 137.63,27.46 62.37,27.46 62.37,41.42 
		50.02,41.42 50.02,27.46 26.36,27.46 26.36,55.38 173.64,55.38 	"/>
	<path class="st0" d="M149.98,19.74v-8h-12.35v8H62.37v-8H50.02v8H18.64V63.1v122.1h123.04l39.68-39.4V63.1V19.74H149.98z
		 M173.64,55.38H26.36V27.46h23.66v13.96h12.35V27.46h75.26v13.96h12.35V27.46h23.66V55.38z M165.56,150.62l-21.61,21.45v-24.01
		h24.19L165.56,150.62z M173.64,140.34h-33.55l-3.86,3.86v33.28H26.36V63.1h147.29V140.34z"/>
	<g>
		<g>
			<g>
				<rect x="68.25" y="83.07" class="st0" width="12.35" height="12.25"/>
			</g>
		</g>
		<g>
			<g>
				<rect x="93.82" y="83.07" class="st0" width="12.35" height="12.25"/>
			</g>
		</g>
		<g>
			<g>
				<rect x="119.4" y="83.07" class="st0" width="12.35" height="12.25"/>
			</g>
		</g>
		<g>
			<g>
				<rect x="144.98" y="83.07" class="st0" width="12.35" height="12.25"/>
			</g>
		</g>
		<g>
			<g>
				<rect x="144.98" y="110.93" class="st0" width="12.35" height="12.25"/>
			</g>
		</g>
		<g>
			<g>
				<rect x="119.4" y="110.93" class="st0" width="12.35" height="12.25"/>
			</g>
		</g>
		<g>
			<g>
				<rect x="93.82" y="110.93" class="st0" width="12.35" height="12.25"/>
			</g>
		</g>
		<g>
			<g>
				<rect x="68.25" y="110.93" class="st0" width="12.35" height="12.25"/>
			</g>
		</g>
		<g>
			<g>
				<rect x="42.67" y="110.93" class="st0" width="12.35" height="12.25"/>
			</g>
		</g>
		<g>
			<g>
				<rect x="42.67" y="138.81" class="st0" width="12.35" height="12.25"/>
			</g>
		</g>
		<g>
			<g>
				<rect x="68.25" y="138.81" class="st0" width="12.35" height="12.25"/>
			</g>
		</g>
		<g>
			<g>
				<rect x="93.82" y="138.81" class="st0" width="12.35" height="12.25"/>
			</g>
		</g>
	</g>
</g>
</svg>
