<?xml version="1.0" encoding="utf-8"?>
<!-- Generator: Adobe Illustrator 23.0.1, SVG Export Plug-In . SVG Version: 6.00 Build 0)  -->
<svg version="1.1" id="Layer_1" xmlns="http://www.w3.org/2000/svg" xmlns:xlink="http://www.w3.org/1999/xlink" x="0px" y="0px"
	 viewBox="0 0 250 250" style="enable-background:new 0 0 250 250;" xml:space="preserve">
<style type="text/css">
	.st0{opacity:0;fill:#FFFFFF;}
	.st1{opacity:0.3;fill:#FFFFFF;enable-background:new    ;}
	.st2{fill:#FFFFFF;}
</style>
<rect class="st0" width="250" height="250"/>
<g>
	<path class="st1" d="M155.33,61.74h27.73c9.35,0,17.08-5.87,18.15-13.4h-27.73C164.13,48.34,156.39,54.21,155.33,61.74z"/>
	<path class="st1" d="M48.67,78.31v21.12c7.98-0.73,14.23-6.72,14.72-14.11v-7.9V65.29c0-0.62,0.05-1.23,0.09-1.84V63.3
		C55.18,64.06,48.67,70.5,48.67,78.31z"/>
	<path class="st1" d="M95.68,50.18c-0.57-0.29-1.16-0.55-1.76-0.78c-0.04-0.01-0.07-0.03-0.11-0.04c-0.53-0.19-1.07-0.35-1.61-0.49
		c-0.12-0.03-0.23-0.06-0.35-0.09c-0.49-0.11-0.98-0.2-1.48-0.27c-0.14-0.02-0.28-0.05-0.42-0.06c-0.62-0.07-1.25-0.11-1.89-0.11
		c-8.75,0-15.97,6.66-16.86,15.18v5.91C82.18,67.98,91.66,60.58,95.68,50.18z"/>
	<path class="st2" d="M196.57,88.53V66.08c7.47-4.03,12.47-11.26,12.47-19.52c0-0.87-0.06-1.72-0.17-2.56l-0.43-3.38h-34.98
		c-13.1,0-23.94,8.59-25.71,19.72l-0.03-0.01c-0.33,1.62-0.5,3.29-0.5,4.96v23.24c0,10.89,7.1,20.14,16.92,23.4h-16.53
		c-3.72-5.47-10-9.07-17.1-9.07c-7.1,0-13.37,3.6-17.1,9.07H95.81c9.81-3.26,16.92-12.51,16.92-23.4V65.29
		c0-7.19-3.11-13.65-8.03-18.16l0.04-0.15l-1.67-1.23c-2.2-1.69-4.67-3.03-7.37-3.91c-0.01,0-0.02-0.01-0.03-0.01
		c-1.11-0.36-2.25-0.63-3.42-0.83c-0.23-0.04-0.46-0.07-0.69-0.11c-1.14-0.16-2.3-0.28-3.49-0.28c-10.13,0-18.85,6.14-22.64,14.9
		c-0.1,0-0.19-0.01-0.29-0.01c-13.33,0-24.18,10.23-24.18,22.81v28.41l3.46,0.36c0.86,0.09,1.73,0.14,2.61,0.14
		c7.51,0,14.24-3.25,18.68-8.34c2.86,6.15,8.18,10.9,14.68,13.05h-27v64h8.79v23.81h42.33v9.65h52.04v-9.65h42.32v-23.81h8.8v-64
		h-28C189.46,108.67,196.57,99.42,196.57,88.53z M63.47,63.45c-0.05,0.61-0.09,1.22-0.09,1.84v12.13v7.9
		c-0.49,7.39-6.74,13.38-14.72,14.11V78.31c0-7.81,6.51-14.25,14.81-15.01V63.45z M173.47,48.34h27.73
		c-1.07,7.53-8.8,13.4-18.15,13.4h-27.73C156.39,54.21,164.13,48.34,173.47,48.34z M154.96,88.53V69.46h28.1c2,0,3.93-0.22,5.8-0.59
		v19.67c0,9.34-7.6,16.95-16.95,16.95C162.55,105.48,154.96,97.88,154.96,88.53z M117.58,123.53c0-7.14,5.81-12.95,12.95-12.95
		c7.14,0,12.95,5.81,12.95,12.95v3.95c0,7.14-5.81,12.95-12.95,12.95c-7.14,0-12.95-5.81-12.95-12.95V123.53z M71.19,63.52
		c0.89-8.52,8.11-15.18,16.86-15.18c0.63,0,1.26,0.04,1.89,0.11c0.14,0.02,0.28,0.05,0.42,0.06c0.5,0.07,0.99,0.15,1.48,0.27
		c0.12,0.03,0.23,0.06,0.35,0.09c0.54,0.14,1.08,0.3,1.61,0.49c0.04,0.01,0.07,0.03,0.11,0.04c0.6,0.23,1.19,0.48,1.76,0.78
		c-4.02,10.39-13.49,17.8-24.48,19.25C71.2,69.43,71.2,63.52,71.19,63.52z M71.11,88.53v-2.37c0.05-0.58,0.09-1.15,0.09-1.74V77.2
		c13.3-1.4,24.96-9.74,30.62-21.76c2,2.78,3.19,6.18,3.19,9.86v23.24c0,9.34-7.6,16.95-16.95,16.95
		C78.71,105.48,71.11,97.88,71.11,88.53z M71,138v30.22h-9.88v-48.57h49.12c-0.24,1.26-0.38,2.55-0.38,3.88v3.95
		c0,9.94,7.06,18.26,16.42,20.23h-21.77v44.31H69.9v-16.09h8.81v-37.94L71,138L71,138z M148.82,201.67h-36.6v-1.93v-3.86v-40.45
		h36.59v44.31l0,0L148.82,201.67L148.82,201.67z M199.93,119.65v48.56h-9.91v-30.22h-7.72v37.94h8.83v16.09h-34.6v-44.31h-21.77
		c9.37-1.96,16.42-10.29,16.42-20.23v-3.95c0-1.33-0.14-2.62-0.38-3.88C150.81,119.65,199.93,119.65,199.93,119.65z"/>
</g>
</svg>
