<?xml version="1.0" encoding="utf-8"?>
<!-- Generator: Adobe Illustrator 23.0.1, SVG Export Plug-In . SVG Version: 6.00 Build 0)  -->
<svg version="1.1" id="Layer_1" xmlns="http://www.w3.org/2000/svg" xmlns:xlink="http://www.w3.org/1999/xlink" x="0px" y="0px"
	 viewBox="0 0 200 200" style="enable-background:new 0 0 200 200;" xml:space="preserve">
<style type="text/css">
	.st0{fill:#FFFFFF;}
	.st1{opacity:0.3;fill:#FFFFFF;}
</style>
<g>
	<path class="st1" d="M130.34,36.42h27.73c9.35,0,17.08-5.87,18.15-13.4h-27.73C139.13,23.02,131.4,28.89,130.34,36.42z"/>
	<path class="st1" d="M23.67,52.99v21.12C31.65,73.38,37.9,67.39,38.39,60v-7.9V39.97c0-0.62,0.05-1.23,0.09-1.84v-0.15
		C30.18,38.74,23.67,45.18,23.67,52.99z"/>
	<path class="st1" d="M70.68,24.86c-0.57-0.29-1.16-0.55-1.76-0.78c-0.04-0.01-0.07-0.03-0.11-0.04c-0.53-0.19-1.07-0.35-1.61-0.49
		c-0.12-0.03-0.23-0.06-0.35-0.09c-0.49-0.11-0.98-0.2-1.48-0.27c-0.14-0.02-0.28-0.05-0.42-0.06c-0.62-0.07-1.25-0.11-1.89-0.11
		c-8.75,0-15.97,6.66-16.86,15.18v5.91C57.19,42.66,66.66,35.26,70.68,24.86z"/>
	<path class="st0" d="M171.58,63.21V40.76c7.47-4.03,12.47-11.26,12.47-19.52c0-0.87-0.06-1.72-0.17-2.56l-0.43-3.38h-34.98
		c-13.1,0-23.94,8.59-25.71,19.72l-0.03-0.01c-0.33,1.62-0.5,3.29-0.5,4.96v23.24c0,10.89,7.1,20.14,16.92,23.4h-16.53
		c-3.72-5.47-10-9.07-17.1-9.07s-13.37,3.6-17.1,9.07H70.81c9.81-3.26,16.92-12.51,16.92-23.4V39.97c0-7.19-3.11-13.65-8.03-18.16
		l0.04-0.15l-1.67-1.23c-2.2-1.69-4.67-3.03-7.37-3.91c-0.01,0-0.02-0.01-0.03-0.01c-1.11-0.36-2.25-0.63-3.42-0.83
		c-0.23-0.04-0.46-0.07-0.69-0.11c-1.14-0.16-2.3-0.28-3.49-0.28c-10.13,0-18.85,6.14-22.64,14.9c-0.1,0-0.19-0.01-0.29-0.01
		c-13.33,0-24.18,10.23-24.18,22.81v28.41l3.46,0.36c0.86,0.09,1.73,0.14,2.61,0.14c7.51,0,14.24-3.25,18.68-8.34
		c2.86,6.15,8.18,10.9,14.68,13.05H28.39v64h8.79v23.81h42.33v9.65h52.04v-9.65h42.32v-23.81h8.8v-64h-28
		C164.47,83.35,171.58,74.1,171.58,63.21z M38.48,38.13c-0.05,0.61-0.09,1.22-0.09,1.84V52.1V60c-0.49,7.39-6.74,13.38-14.72,14.11
		V52.99c0-7.81,6.51-14.25,14.81-15.01V38.13z M148.48,23.02h27.73c-1.07,7.53-8.8,13.4-18.15,13.4h-27.73
		C131.4,28.89,139.13,23.02,148.48,23.02z M129.96,63.21V44.14h28.1c2,0,3.93-0.22,5.8-0.59v19.67c0,9.34-7.6,16.95-16.95,16.95
		C137.56,80.16,129.96,72.56,129.96,63.21z M92.58,98.21c0-7.14,5.81-12.95,12.95-12.95s12.95,5.81,12.95,12.95v3.95
		c0,7.14-5.81,12.95-12.95,12.95s-12.95-5.81-12.95-12.95V98.21z M46.2,38.2c0.89-8.52,8.11-15.18,16.86-15.18
		c0.63,0,1.26,0.04,1.89,0.11c0.14,0.02,0.28,0.05,0.42,0.06c0.5,0.07,0.99,0.15,1.48,0.27c0.12,0.03,0.23,0.06,0.35,0.09
		c0.54,0.14,1.08,0.3,1.61,0.49c0.04,0.01,0.07,0.03,0.11,0.04c0.6,0.23,1.19,0.48,1.76,0.78c-4.02,10.39-13.49,17.8-24.48,19.25
		V38.2z M46.11,63.21v-2.37c0.05-0.58,0.09-1.15,0.09-1.74v-7.22c13.3-1.4,24.96-9.74,30.62-21.76c2,2.78,3.19,6.18,3.19,9.86v23.24
		c0,9.34-7.6,16.95-16.95,16.95C53.71,80.16,46.11,72.56,46.11,63.21z M46,112.68v30.22h-9.88V94.33h49.12
		c-0.24,1.26-0.38,2.55-0.38,3.88v3.95c0,9.94,7.06,18.26,16.42,20.23H79.51v44.31H44.9v-16.09h8.81v-37.94H46z M123.83,176.35
		h-36.6v-1.93v-3.86v-40.45h36.59v44.31h0V176.35z M174.94,94.33v48.56h-9.91v-30.22h-7.72v37.94h8.83v16.09h-34.6v-44.31h-21.77
		c9.37-1.96,16.42-10.29,16.42-20.23v-3.95c0-1.33-0.14-2.62-0.38-3.88H174.94z"/>
</g>
</svg>
