<?xml version="1.0" encoding="utf-8"?>
<!-- Generator: Adobe Illustrator 23.0.1, SVG Export Plug-In . SVG Version: 6.00 Build 0)  -->
<svg version="1.1" id="Layer_1" xmlns="http://www.w3.org/2000/svg" xmlns:xlink="http://www.w3.org/1999/xlink" x="0px" y="0px"
	 viewBox="0 0 250 200" style="enable-background:new 0 0 250 200;" xml:space="preserve">
<style type="text/css">
	.st0{fill:#FFFFFF;}
	.st1{opacity:0.3;fill:#FFFFFF;}
</style>
<g>
	<path class="st1" d="M95.42,106.02c-1.47-0.28-2.97-0.48-4.5-0.48c-9.38,0-18,5.49-21.96,14l-7.64-3.56
		c5.34-11.46,16.96-18.86,29.6-18.86c0.92,0,1.82,0.12,2.73,0.2c-0.39-2.89-0.61-5.82-0.61-8.82c0-20.6,9.49-39.02,24.32-51.14
		c-7.93-4.11-16.9-6.48-26.43-6.48c-31.77,0-57.62,25.85-57.62,57.62c0,31.77,25.85,57.62,57.62,57.62c9.53,0,18.51-2.36,26.44-6.48
		C106.89,131.08,99.11,119.39,95.42,106.02z"/>
	<g>
		<g>
			<g>
				<path class="st0" d="M68.52,79.63c-8.62,0-15.62-7.01-15.62-15.62h8.43c0,3.97,3.23,7.2,7.2,7.2c3.97,0,7.2-3.23,7.2-7.2h8.43
					C84.15,72.62,77.14,79.63,68.52,79.63z"/>
			</g>
		</g>
	</g>
	<path class="st0" d="M159.08,22.45c-12.48,0-24.12,3.54-34.08,9.58c-9.97-6.04-21.6-9.58-34.08-9.58
		c-36.42,0-66.04,29.63-66.04,66.05c0,36.42,29.63,66.04,66.04,66.04c12.48,0,24.12-3.54,34.08-9.58c9.96,6.04,21.6,9.58,34.08,9.58
		c36.42,0,66.04-29.63,66.04-66.04C225.13,52.08,195.5,22.45,159.08,22.45z M93.65,97.31c-0.91-0.08-1.81-0.2-2.73-0.2
		c-12.64,0-24.25,7.4-29.6,18.86l7.64,3.56c3.97-8.5,12.59-14,21.96-14c1.53,0,3.03,0.2,4.5,0.48
		c3.69,13.37,11.47,25.06,21.93,33.61c-7.93,4.11-16.9,6.48-26.44,6.48c-31.77,0-57.62-25.85-57.62-57.62
		c0-31.77,25.85-57.62,57.62-57.62c9.53,0,18.51,2.36,26.43,6.48C102.53,49.48,93.04,67.89,93.04,88.5
		C93.04,91.49,93.26,94.43,93.65,97.31z M159.08,146.11c-9.53,0-18.51-2.36-26.43-6.48c-1.35-0.7-2.67-1.46-3.95-2.27
		c-1.26-0.79-2.5-1.64-3.7-2.52c-8.28-6.1-14.87-14.36-18.95-23.93c-1.57-3.68-2.77-7.55-3.55-11.58
		c-0.67-3.51-1.04-7.13-1.04-10.84c0-19.01,9.3-35.85,23.54-46.35c1.2-0.89,2.43-1.73,3.7-2.52c1.28-0.81,2.6-1.56,3.95-2.27
		c7.93-4.11,16.9-6.48,26.43-6.48c31.77,0,57.62,25.85,57.62,57.62C216.7,120.27,190.85,146.11,159.08,146.11z"/>
	<g>
		<g>
			<path class="st0" d="M152.31,75.41h-8.43c0-3.97-3.23-7.2-7.2-7.2s-7.2,3.23-7.2,7.2h-8.43c0-8.62,7.01-15.62,15.62-15.62
				S152.31,66.8,152.31,75.41z"/>
		</g>
	</g>
	<g>
		<g>
			<path class="st0" d="M197.1,75.41h-8.43c0-3.97-3.23-7.2-7.2-7.2s-7.2,3.23-7.2,7.2h-8.43c0-8.62,7.01-15.62,15.63-15.62
				S197.1,66.8,197.1,75.41z"/>
		</g>
	</g>
	<g>
		<g>
			<path class="st0" d="M159.03,122.9c-13.03,0-24.79-7.73-29.97-19.68l7.73-3.35c3.84,8.88,12.57,14.61,22.24,14.61
				c9.76,0,18.51-5.8,22.31-14.79l7.76,3.29C183.99,115.08,172.18,122.9,159.03,122.9z"/>
		</g>
	</g>
</g>
</svg>
