<?xml version="1.0" encoding="utf-8"?>
<!-- Generator: Adobe Illustrator 23.0.1, SVG Export Plug-In . SVG Version: 6.00 Build 0)  -->
<svg version="1.1" id="Layer_1" xmlns="http://www.w3.org/2000/svg" xmlns:xlink="http://www.w3.org/1999/xlink" x="0px" y="0px"
	 viewBox="0 0 250 250" style="enable-background:new 0 0 250 250;" xml:space="preserve">
<style type="text/css">
	.st0{opacity:0;fill:#FFFFFF;}
	.st1{fill:#FFFFFF;}
	.st2{opacity:0.3;fill:#FFFFFF;enable-background:new    ;}
</style>
<rect class="st0" width="250" height="250"/>
<g>
	<g>
		<g>
			<path class="st1" d="M85.98,72.12l-3.12-7.06c3.7-1.63,7.62-2.6,11.67-2.88l0.52,7.7C91.91,70.1,88.86,70.85,85.98,72.12z"/>
		</g>
	</g>
	<g>
		<g>
			<path class="st1" d="M63.86,107.98c-1.18-3.55-1.78-7.25-1.78-11.02c0-9.31,3.63-18.06,10.21-24.64l5.46,5.46
				c-5.12,5.13-7.95,11.94-7.95,19.19c0,2.94,0.47,5.82,1.38,8.58L63.86,107.98z"/>
		</g>
	</g>
	
		<rect x="163.99" y="150.49" transform="matrix(0.7071 -0.7071 0.7071 0.7071 -71.8998 173.5476)" class="st2" width="19.1" height="46.14"/>
	<path class="st1" d="M163.98,139.58l-9.48,9.48l-16.46-16.46c8.31-9.57,13.38-22.01,13.38-35.65c0-30.04-24.44-54.48-54.48-54.48
		S42.46,66.91,42.46,96.95s24.44,54.48,54.48,54.48c13.63,0,26.08-5.07,35.65-13.38l16.46,16.46l-9.48,9.48l43.54,43.54l24.42-24.42
		L163.98,139.58z M96.94,143.72c-25.78,0-46.76-20.97-46.76-46.76c0-25.78,20.98-46.76,46.76-46.76s46.76,20.98,46.76,46.76
		C143.7,122.74,122.72,143.72,96.94,143.72z M163.98,150.5l32.63,32.63l-13.51,13.51l-32.63-32.63L163.98,150.5z"/>
</g>
</svg>
