<?xml version="1.0" encoding="utf-8"?>
<!-- Generator: Adobe Illustrator 23.0.1, SVG Export Plug-In . SVG Version: 6.00 Build 0)  -->
<svg version="1.1" id="Layer_1" xmlns="http://www.w3.org/2000/svg" xmlns:xlink="http://www.w3.org/1999/xlink" x="0px" y="0px"
	 viewBox="0 0 200 200" style="enable-background:new 0 0 200 200;" xml:space="preserve">
<style type="text/css">
	.st0{fill:#FFFFFF;}
	.st1{opacity:0.3;fill:#FFFFFF;}
</style>
<g>
	<g>
		<g>
			<path class="st0" d="M60.99,47.44l-3.12-7.06c3.7-1.63,7.62-2.6,11.67-2.88l0.52,7.7C66.92,45.42,63.87,46.17,60.99,47.44z"/>
		</g>
	</g>
	<g>
		<g>
			<path class="st0" d="M38.87,83.3c-1.18-3.55-1.78-7.25-1.78-11.02c0-9.31,3.63-18.06,10.21-24.64l5.46,5.46
				c-5.12,5.13-7.95,11.94-7.95,19.19c0,2.94,0.47,5.82,1.38,8.58L38.87,83.3z"/>
		</g>
	</g>
	
		<rect x="139" y="125.81" transform="matrix(0.7071 -0.7071 0.7071 0.7071 -61.7672 148.6512)" class="st1" width="19.1" height="46.14"/>
	<path class="st0" d="M138.99,114.9l-9.48,9.48l-16.46-16.46c8.31-9.57,13.38-22.01,13.38-35.65c0-30.04-24.44-54.48-54.48-54.48
		c-30.04,0-54.48,24.44-54.48,54.48c0,30.04,24.44,54.48,54.48,54.48c13.63,0,26.08-5.07,35.65-13.38l16.46,16.46l-9.48,9.48
		l43.54,43.54l24.42-24.42L138.99,114.9z M71.95,119.04c-25.78,0-46.76-20.97-46.76-46.76c0-25.78,20.98-46.76,46.76-46.76
		s46.76,20.98,46.76,46.76C118.71,98.06,97.73,119.04,71.95,119.04z M138.99,125.82l32.63,32.63l-13.51,13.51l-32.63-32.63
		L138.99,125.82z"/>
</g>
</svg>
