<?xml version="1.0" encoding="utf-8"?>
<!-- Generator: Adobe Illustrator 23.0.1, SVG Export Plug-In . SVG Version: 6.00 Build 0)  -->
<svg version="1.1" id="Layer_1" xmlns="http://www.w3.org/2000/svg" xmlns:xlink="http://www.w3.org/1999/xlink" x="0px" y="0px"
	 viewBox="0 0 250 250" style="enable-background:new 0 0 250 250;" xml:space="preserve">
<style type="text/css">
	.st0{opacity:0;fill:#FFFFFF;}
	.st1{opacity:0.3;fill:#FFFFFF;enable-background:new    ;}
	.st2{fill:#FFFFFF;}
</style>
<rect class="st0" width="250" height="250"/>
<g>
	
		<rect x="15.39" y="70.01" transform="matrix(0.7071 -0.7072 0.7072 0.7071 -40.7407 55.2487)" class="st1" width="61.84" height="13.58"/>
	
		<rect x="196.91" y="45.88" transform="matrix(0.7071 -0.7071 0.7071 0.7071 5.357 166.5306)" class="st1" width="13.58" height="61.84"/>
	<path class="st2" d="M220.62,114.51l20.65-20.65l-54.64-54.64l-20.65,20.65l4.08,4.08l-5.85,5.85l-16.43-16.43L125,76.16
		l-22.78-22.78L85.8,69.8l-5.85-5.85l4.08-4.08L63.37,39.22L8.73,93.86l20.65,20.65l4.08-4.08l5.86,5.86l-8.66,8.66l85.82,85.83
		l13.91-13.91l12.57,12.57l13.91-13.91l9.76,9.76L186,185.92l-8.09-8.09l13.97-13.97l-5.73-5.73l33.18-33.19l-8.66-8.66l5.86-5.86
		L220.62,114.51z M230.36,93.86l-9.6,9.6l-43.73-43.73l9.6-9.6L230.36,93.86z M19.64,93.86l43.72-43.72l9.6,9.6l-43.72,43.72
		L19.64,93.86z M172.52,172.33l-36.51-36.5l-0.06,0.06l-5.4,5.4l-0.06,0.06l44.59,44.59l-8.45,8.46l-4.31-4.31l-40.29-40.29
		l-5.46,5.46l34.83,34.83l-8.45,8.45l-34.83-34.83l-5.46,5.46l22.26,22.26l-8.45,8.45l-74.89-74.92l8.66-8.66l-11.32-11.33
		L74.49,69.4L85.8,80.72l16.43-16.43l17.32,17.32l-28.47,28.47l19.37,19.37l18.05-18.05l52.48,52.48L172.52,172.33z M199.76,116.29
		l8.66,8.66l-27.73,27.73l-52.2-52.2l-18.05,18.05l-8.45-8.45l45.79-45.79l16.43,16.43l11.31-11.31l35.57,35.57L199.76,116.29z"/>
</g>
</svg>
