<?xml version="1.0" encoding="utf-8"?>
<!-- Generator: Adobe Illustrator 23.0.1, SVG Export Plug-In . SVG Version: 6.00 Build 0)  -->
<svg version="1.1" id="Layer_1" xmlns="http://www.w3.org/2000/svg" xmlns:xlink="http://www.w3.org/1999/xlink" x="0px" y="0px"
	 viewBox="0 0 250 200" style="enable-background:new 0 0 250 200;" xml:space="preserve">
<style type="text/css">
	.st0{fill:#FFFFFF;}
	.st1{opacity:0.3;fill:#FFFFFF;}
</style>
<g>
	
		<rect x="15.39" y="44.85" transform="matrix(0.7071 -0.7072 0.7072 0.7071 -22.9516 47.8736)" class="st1" width="61.84" height="13.58"/>
	
		<rect x="196.91" y="20.72" transform="matrix(0.7071 -0.7071 0.7071 0.7071 23.1478 159.1604)" class="st1" width="13.58" height="61.84"/>
	<path class="st0" d="M220.62,89.35l20.65-20.65l-54.64-54.64l-20.65,20.65l4.08,4.08l-5.85,5.85l-16.43-16.43L125,51l-22.78-22.78
		L85.8,44.64l-5.85-5.85l4.08-4.08L63.37,14.06L8.73,68.7l20.65,20.65l4.08-4.08l5.86,5.86l-8.66,8.66l85.82,85.83l13.91-13.91
		l12.57,12.57l13.91-13.91l9.76,9.76l19.37-19.37l-8.09-8.09l13.97-13.97l-5.73-5.73l33.18-33.19l-8.66-8.66l5.86-5.86L220.62,89.35
		z M230.36,68.7l-9.6,9.6l-43.73-43.73l9.6-9.6L230.36,68.7z M19.64,68.7l43.72-43.72l9.6,9.6L29.24,78.3L19.64,68.7z
		 M172.52,147.17l-36.51-36.5l-0.06,0.06l-5.4,5.4l-0.06,0.06l44.59,44.59l-8.45,8.46l-4.31-4.31l-40.29-40.29l-5.46,5.46
		l34.83,34.83l-8.45,8.45l-34.83-34.83l-5.46,5.46l22.26,22.26l-8.45,8.45L41.58,99.8l8.66-8.66L38.92,79.81l35.57-35.57L85.8,55.56
		l16.43-16.43l17.32,17.32L91.08,84.92l19.37,19.37l18.05-18.05l52.48,52.48L172.52,147.17z M199.76,91.13l8.66,8.66l-27.73,27.73
		l-52.2-52.2l-18.05,18.05l-8.45-8.45l45.79-45.79l16.43,16.43l11.31-11.31l35.57,35.57L199.76,91.13z"/>
</g>
</svg>
