<?xml version="1.0" encoding="utf-8"?>
<!-- Generator: Adobe Illustrator 23.0.1, SVG Export Plug-In . SVG Version: 6.00 Build 0)  -->
<svg version="1.1" id="Layer_1" xmlns="http://www.w3.org/2000/svg" xmlns:xlink="http://www.w3.org/1999/xlink" x="0px" y="0px"
	 viewBox="0 0 200 200" style="enable-background:new 0 0 200 200;" xml:space="preserve">
<style type="text/css">
	.st0{fill:#FFFFFF;}
	.st1{opacity:0.3;fill:#FFFFFF;}
</style>
<g>
	<g>
		<g>
			<path class="st0" d="M114.59,17.66c9.5,0,17.2,7.7,17.2,17.2c0,4.66-1.87,8.88-4.88,11.97h40.84v25.18
				c-0.38-0.02-0.76-0.02-1.15-0.02c-15.44,0-28.01,12.57-28.01,28.01c0,15.44,12.57,28.01,28.01,28.01c0.38,0,0.77-0.01,1.15-0.02
				v25.18H126.9c3.01,3.1,4.89,7.32,4.89,11.98c0,9.5-7.7,17.2-17.2,17.2c-9.5,0-17.2-7.7-17.2-17.2c0-4.66,1.87-8.88,4.89-11.98
				H61.43v-40.84c-3.1,3.01-7.31,4.88-11.97,4.88c-9.5,0-17.2-7.7-17.2-17.2c0-9.5,7.7-17.2,17.2-17.2c4.66,0,8.88,1.87,11.97,4.88
				V46.84h40.84c-3.01-3.1-4.88-7.31-4.88-11.97C97.39,25.36,105.09,17.66,114.59,17.66 M114.59,9.94
				c-13.74,0-24.92,11.18-24.92,24.92c0,1.44,0.12,2.86,0.36,4.25h-28.6h-7.72v7.72v28.6c-1.39-0.24-2.82-0.36-4.25-0.36
				c-13.74,0-24.92,11.18-24.92,24.92c0,13.74,11.18,24.92,24.92,24.92c1.44,0,2.86-0.12,4.25-0.36v28.6v7.72h7.72h28.6
				c-0.24,1.4-0.36,2.82-0.36,4.26c0,13.74,11.18,24.92,24.92,24.92s24.92-11.18,24.92-24.92c0-1.44-0.12-2.87-0.36-4.26h28.6h7.72
				v-7.72v-25.18v-8.05l-8.04,0.33c-0.28,0.01-0.55,0.02-0.83,0.02c-11.19,0-20.29-9.1-20.29-20.29s9.1-20.29,20.29-20.29
				c0.28,0,0.55,0.01,0.83,0.02l8.04,0.33v-8.05V46.84v-7.72h-7.72h-28.6c0.24-1.39,0.36-2.82,0.36-4.25
				C139.51,21.12,128.33,9.94,114.59,9.94L114.59,9.94z"/>
		</g>
	</g>
	<g>
		<g>
			<g>
				<polygon class="st0" points="86.73,88.49 79.01,88.49 79.01,65.33 110.15,65.33 110.15,73.05 86.73,73.05 				"/>
			</g>
		</g>
		<g>
			<g>
				<rect x="79.01" y="99.84" class="st0" width="7.72" height="14.67"/>
			</g>
		</g>
	</g>
</g>
</svg>
