<?xml version="1.0" encoding="utf-8"?>
<!-- Generator: Adobe Illustrator 23.0.1, SVG Export Plug-In . SVG Version: 6.00 Build 0)  -->
<svg version="1.1" id="Layer_1" xmlns="http://www.w3.org/2000/svg" xmlns:xlink="http://www.w3.org/1999/xlink" x="0px" y="0px"
	 viewBox="0 0 250 250" style="enable-background:new 0 0 250 250;" xml:space="preserve">
<style type="text/css">
	.st0{opacity:0;fill:#FFFFFF;}
	.st1{fill:#FFFFFF;}
</style>
<rect class="st0" width="250" height="250"/>
<g>
	<g>
		<g>
			<path class="st1" d="M139.58,42.67c9.5,0,17.2,7.7,17.2,17.2c0,4.66-1.87,8.88-4.88,11.97h40.84v25.18
				C192.36,97,191.99,97,191.6,97c-15.44,0-28.01,12.57-28.01,28.01s12.57,28.01,28.01,28.01c0.38,0,0.77-0.01,1.15-0.02v25.18
				H151.9c3.01,3.1,4.89,7.32,4.89,11.98c0,9.5-7.7,17.2-17.2,17.2s-17.2-7.7-17.2-17.2c0-4.66,1.87-8.88,4.89-11.98H86.43v-40.84
				c-3.1,3.01-7.31,4.88-11.97,4.88c-9.5,0-17.2-7.7-17.2-17.2c0-9.5,7.7-17.2,17.2-17.2c4.66,0,8.88,1.87,11.97,4.88V71.85h40.84
				c-3.01-3.1-4.88-7.31-4.88-11.97C122.39,50.37,130.08,42.67,139.58,42.67 M139.58,34.95c-13.74,0-24.92,11.18-24.92,24.92
				c0,1.44,0.12,2.86,0.36,4.25h-28.6h-7.72v7.72v28.6c-1.39-0.24-2.82-0.36-4.25-0.36c-13.74,0-24.92,11.18-24.92,24.92
				s11.18,24.92,24.92,24.92c1.44,0,2.86-0.12,4.25-0.36v28.6v7.72h7.72h28.6c-0.24,1.4-0.36,2.82-0.36,4.26
				c0,13.74,11.18,24.92,24.92,24.92s24.92-11.18,24.92-24.92c0-1.44-0.12-2.87-0.36-4.26h28.6h7.72v-7.72v-25.18v-8.05l-8.04,0.33
				c-0.28,0.01-0.55,0.02-0.83,0.02c-11.19,0-20.29-9.1-20.29-20.29s9.1-20.29,20.29-20.29c0.28,0,0.55,0.01,0.83,0.02l8.04,0.33
				v-8.05V71.85v-7.72h-7.72h-28.6c0.24-1.39,0.36-2.82,0.36-4.25C164.5,46.13,153.32,34.95,139.58,34.95L139.58,34.95z"/>
		</g>
	</g>
	<g>
		<g>
			<g>
				<polygon class="st1" points="111.73,113.5 104.01,113.5 104.01,90.34 135.15,90.34 135.15,98.06 111.73,98.06 				"/>
			</g>
		</g>
		<g>
			<g>
				<rect x="104.01" y="124.85" class="st1" width="7.72" height="14.67"/>
			</g>
		</g>
	</g>
</g>
</svg>
