<?xml version="1.0" encoding="utf-8"?>
<!-- Generator: Adobe Illustrator 23.0.1, SVG Export Plug-In . SVG Version: 6.00 Build 0)  -->
<svg version="1.1" id="Layer_1" xmlns="http://www.w3.org/2000/svg" xmlns:xlink="http://www.w3.org/1999/xlink" x="0px" y="0px"
	 viewBox="0 0 250 250" style="enable-background:new 0 0 250 250;" xml:space="preserve">
<style type="text/css">
	.st0{fill:#FFFFFF;fill-opacity:0;}
	.st1{fill:#FFFFFF;}
	.st2{opacity:0.3;fill:#FFFFFF;}
</style>
<rect class="st0" width="250" height="250"/>
<g>
	<g>
		
			<rect x="32.4" y="72.2" transform="matrix(0.7071 -0.7071 0.7071 0.7071 -42.2183 50.164)" class="st1" width="14.2" height="7.8"/>
	</g>
	<rect x="56" y="112" class="st2" width="11.1" height="20.5"/>
	<g>
		
			<rect x="159.1" y="72.2" transform="matrix(0.7071 -0.7071 0.7071 0.7071 -5.0845 139.8129)" class="st1" width="14.2" height="7.8"/>
	</g>
	<rect x="182.9" y="112" class="st2" width="11" height="20.5"/>
	<g>
		
			<rect x="83.1" y="113.6" transform="matrix(0.7071 -0.7071 0.7071 0.7071 -56.0501 99.6613)" class="st1" width="18.4" height="7.8"/>
	</g>
	<rect x="116.6" y="162.9" class="st2" width="16.8" height="28.9"/>
	<path class="st1" d="M233.9,112V50.4h-91v35h-35.7v-35h-91V112h32.2v20.5H36v7.8h12.3h18.9v22.7h41.7v28.9h-17v7.8h17h32.3h17v-7.8
		h-17v-28.9h41.7v-22.7h18.8H214v-7.8h-12.3V112H233.9z M150.6,58.2h12l-7.2,7.2l5.5,5.5l12.7-12.7h52.6v46h-24.4h-18.8V85.4h-32.3
		V58.2z M194,132.5h-11V112h11V132.5z M23.8,104.2v-46h12l-7.2,7.2l5.5,5.5l12.7-12.7h52.6v27.2H67.2v18.8H48.3H23.8z M56,112h11.1
		v20.5H56V112z M133.5,191.8h-16.8v-28.9h16.8V191.8z M141.2,155.2h-32.3h-34v-62h19.5l-11.3,11.3l5.5,5.5l16.8-16.8h69.8v62H141.2z
		"/>
</g>
</svg>
